#!OML:ASF C:\ViconDB\ViconDB\414\Spring2016\041811\Spring2016.ASF
:FULLY-SPECIFIED
:DEGREES
216
root 8.7905 18.1502 -16.3909 -180.747 -0.551974 -178.971
lowerback 4.40528 -0.401902 -4.05222
upperback 1.31964 -0.748796 1.0862
thorax -1.04622 -0.396114 3.43327
lowerneck -8.61955 -4.89739 -9.9662
upperneck 17.5804 -7.18611 16.2924
head 7.77445 -2.31673 6.50686
rclavicle 1.50704e-014 1.27222e-014
rhumerus -49.9017 -20.0271 -78.0431
rradius 37.6696
rwrist 34.3662
rhand -33.6979 -13.9839
rfingers 7.12502
rthumb -6.88798 -43.8518
lclavicle 1.50704e-014 1.27222e-014
lhumerus -32.3686 -15.9553 91.5164
lradius 37.3013
lwrist -23.1925
lhand -28.9202 15.8855
lfingers 7.12502
lthumb -2.27464 45.8531
rfemur -29.8119 -19.071 23.5277
rtibia 50.2111
rfoot -168.13 3.01835
rtoes -8.71039
lfemur -1.88373 -8.99097 -20.4145
ltibia 25.8154
lfoot -23.2449 3.74216
ltoes -11.5313
217
root 8.78818 18.1622 -16.5908 -180.631 -0.729206 -179.083
lowerback 4.30504 -0.539041 -4.12126
upperback 1.27063 -0.927889 1.10322
thorax -1.0231 -0.483996 3.49753
lowerneck -8.53329 -4.90663 -9.91089
upperneck 17.6425 -7.20338 16.2445
head 7.77728 -2.32412 6.48145
rclavicle 1.71452e-015 -5.36719e-015
rhumerus -50.29 -19.839 -78.0675
rradius 37.8374
rwrist 34.1838
rhand -32.8617 -13.9096
rfingers 7.12502
rthumb -6.08065 -43.8023
lclavicle 1.71452e-015 -5.36719e-015
lhumerus -32.1898 -16.404 91.337
lradius 38.1126
lwrist -22.9173
lhand -28.7716 15.8077
lfingers 7.12502
lthumb -2.13117 45.7768
rfemur -30.0384 -18.9819 23.9316
rtibia 46.8383
rfoot -167.665 2.90091
rtoes -8.31434
lfemur -0.671753 -9.08291 -20.627
ltibia 24.7015
lfoot -23.2643 3.68677
ltoes -11.6634
218
root 8.79337 18.1654 -16.7989 -180.571 -0.908837 -179.225
lowerback 4.16161 -0.680339 -4.31246
upperback 1.24189 -1.11585 1.11829
thorax -0.951136 -0.578043 3.62754
lowerneck -8.36671 -4.84526 -9.81565
upperneck 17.6209 -7.12538 16.2113
head 7.72266 -2.28819 6.46187
rclavicle -7.53518e-015 -6.26172e-015
rhumerus -50.7865 -19.7242 -78.1513
rradius 38.1115
rwrist 33.9219
rhand -32.6337 -13.6807
rfingers 7.12502
rthumb -5.86057 -43.5797
lclavicle -7.53518e-015 -6.26172e-015
lhumerus -31.8954 -16.9561 91.1677
lradius 38.7426
lwrist -22.421
lhand -28.9391 15.8399
lfingers 7.12502
lthumb -2.29291 45.8073
rfemur -30.1389 -18.9267 24.2087
rtibia 43.5607
rfoot -167.14 3.07121
rtoes -8.79532
lfemur 0.737577 -9.11268 -20.8405
ltibia 23.3597
lfoot -23.2122 3.58593
ltoes -11.811
219
root 8.79478 18.1723 -17.008 -180.479 -0.983925 -179.201
lowerback 3.92632 -0.771645 -4.18905
upperback 1.25147 -1.22073 1.14384
thorax -0.80187 -0.633659 3.58418
lowerneck -8.33789 -4.84106 -9.85995
upperneck 17.6798 -7.12664 16.3017
head 7.74181 -2.27939 6.50491
rclavicle 9.65969e-015 -1.43125e-014
rhumerus -51.2298 -19.6266 -78.2241
rradius 38.3857
rwrist 33.6386
rhand -32.5735 -13.6692
rfingers 7.12502
rthumb -5.80248 -43.5697
lclavicle 9.65969e-015 -1.43125e-014
lhumerus -31.8019 -17.3362 90.9559
lradius 39.612
lwrist -22.2737
lhand -29.2021 15.6787
lfingers 7.12502
lthumb -2.54689 45.6432
rfemur -30.2295 -18.6906 24.5886
rtibia 40.4404
rfoot -166.549 3.38068
rtoes -7.90733
lfemur 2.19071 -8.85236 -20.8291
ltibia 21.8641
lfoot -23.062 3.41213
ltoes -12.1461
220
root 8.79482 18.1667 -17.2134 -180.299 -1.10459 -179.611
lowerback 3.67484 -0.874445 -4.46714
upperback 1.20422 -1.35434 1.03434
thorax -0.693251 -0.700331 3.62821
lowerneck -8.29229 -4.80415 -9.88688
upperneck 17.7612 -7.08848 16.4366
head 7.76032 -2.24371 6.56644
rclavicle 2.22701e-015 4.72114e-015
rhumerus -51.624 -19.389 -78.4091
rradius 38.6399
rwrist 32.8422
rhand -32.3228 -13.1433
rfingers 7.12502
rthumb -5.56044 -43.0504
lclavicle 2.22701e-015 4.72114e-015
lhumerus -31.6859 -17.7426 90.7018
lradius 40.3731
lwrist -22.2929
lhand -29.1385 15.7082
lfingers 7.12502
lthumb -2.48547 45.6735
rfemur -30.4607 -18.5382 24.4353
rtibia 37.5996
rfoot -165.846 4.02698
rtoes -8.31514
lfemur 3.55207 -8.66393 -21.2943
ltibia 20.3385
lfoot -22.7304 3.11569
ltoes -12.1468
221
root 8.80216 18.1658 -17.4205 -180.135 -1.16206 -179.781
lowerback 3.41588 -0.981539 -4.62455
upperback 1.14756 -1.48699 1.06914
thorax -0.588686 -0.766733 3.75247
lowerneck -8.08234 -4.73623 -9.93517
upperneck 17.7014 -6.97885 16.3381
head 7.68282 -2.21726 6.55016
rclavicle 1.40656e-014 -9.14409e-015
rhumerus -52.0988 -18.8969 -78.5557
rradius 39.0965
rwrist 32.9488
rhand -31.3163 -13.181
rfingers 7.12502
rthumb -4.58858 -43.1113
lclavicle 1.40656e-014 -9.14409e-015
lhumerus -31.6124 -17.9473 90.5432
lradius 40.9801
lwrist -22.3487
lhand -29.4335 15.6586
lfingers 7.12502
lthumb -2.77035 45.6203
rfemur -30.6585 -18.1137 24.4845
rtibia 35.012
rfoot -165.103 4.34821
rtoes -8.30115
lfemur 4.89641 -8.5309 -21.4723
ltibia 18.8366
lfoot -22.4139 2.97733
ltoes -12.4416
222
root 8.80973 18.1591 -17.6223 -179.987 -1.28845 -180.245
lowerback 3.22109 -1.09875 -5.0251
upperback 1.12521 -1.64535 0.968634
thorax -0.478114 -0.84789 3.87464
lowerneck -8.05202 -4.67122 -9.85012
upperneck 17.7443 -6.88416 16.1999
head 7.66864 -2.17963 6.49702
rclavicle 2.30854e-015 7.61594e-015
rhumerus -52.4559 -18.4606 -78.9698
rradius 39.4881
rwrist 31.9227
rhand -31.7412 -13.1641
rfingers 7.12502
rthumb -4.9988 -43.0851
lclavicle 2.30854e-015 7.61594e-015
lhumerus -31.5696 -18.1948 90.2714
lradius 41.7661
lwrist -22.0967
lhand -29.8717 15.4686
lfingers 7.12502
lthumb -3.19351 45.4244
rfemur -30.9764 -17.9687 24.2747
rtibia 32.8125
rfoot -164.228 4.80161
rtoes -8.00371
lfemur 6.23952 -8.37873 -21.9574
ltibia 17.3057
lfoot -22.0306 2.86054
ltoes -12.774
223
root 8.81521 18.1527 -17.825 -179.772 -1.19617 -180.413
lowerback 2.93675 -1.14077 -5.07322
upperback 1.06924 -1.68519 0.93914
thorax -0.371743 -0.867942 3.86574
lowerneck -8.09272 -4.65186 -9.97367
upperneck 17.9715 -6.8637 16.3413
head 7.7567 -2.14912 6.58132
rclavicle -2.22183e-014 4.94166e-015
rhumerus -52.8047 -18.0229 -79.2602
rradius 39.9051
rwrist 31.3486
rhand -31.6167 -12.9757
rfingers 7.12502
rthumb -4.87859 -42.8996
lclavicle -2.22183e-014 4.94166e-015
lhumerus -31.2548 -18.4929 90.0061
lradius 42.2555
lwrist -21.9363
lhand -29.6825 15.6444
lfingers 7.12502
lthumb -3.01089 45.6029
rfemur -31.3379 -17.5112 24.3312
rtibia 30.8845
rfoot -163.229 5.12137
rtoes -7.61669
lfemur 7.49838 -8.02119 -22.1212
ltibia 15.8205
lfoot -21.5817 2.84738
ltoes -13.6235
224
root 8.82919 18.1329 -18.0282 -179.695 -1.29647 -180.709
lowerback 2.80076 -1.22506 -5.31984
upperback 1.05667 -1.79644 0.890499
thorax -0.290535 -0.925641 3.95349
lowerneck -7.99863 -4.6048 -9.95782
upperneck 17.9764 -6.7958 16.2985
head 7.72823 -2.12273 6.571
rclavicle -2.54002e-014 -2.57178e-015
rhumerus -53.1499 -17.4254 -79.7335
rradius 40.4323
rwrist 30.459
rhand -31.4977 -13.0079
rfingers 7.12502
rthumb -4.76374 -42.9344
lclavicle -2.54002e-014 -2.57178e-015
lhumerus -31.0572 -18.5312 89.7891
lradius 42.6725
lwrist -21.7969
lhand -30.1216 15.3624
lfingers 7.12502
lthumb -3.43487 45.3145
rfemur -31.5211 -16.9056 24.0273
rtibia 29.3697
rfoot -162.58 5.47458
rtoes -6.81123
lfemur 8.88447 -7.6467 -22.3284
ltibia 14.3526
lfoot -21.1281 2.40129
ltoes -13.6058
225
root 8.84133 18.1203 -18.2333 -179.7 -1.35422 -180.914
lowerback 2.70937 -1.23678 -5.39455
upperback 1.10343 -1.8092 0.842897
thorax -0.188953 -0.936566 3.94319
lowerneck -8.00435 -4.62149 -9.93878
upperneck 18.0208 -6.80834 16.1757
head 7.74052 -2.13832 6.52376
rclavicle 3.96793e-015 3.3048e-015
rhumerus -53.493 -17.1977 -79.9696
rradius 40.9403
rwrist 30.1541
rhand -31.5203 -13.1377
rfingers 7.12502
rthumb -4.78558 -43.0637
lclavicle 3.96793e-015 3.3048e-015
lhumerus -30.7819 -18.7524 89.5929
lradius 43.0746
lwrist -21.8147
lhand -30.2512 15.327
lfingers 7.12502
lthumb -3.56002 45.2771
rfemur -31.5397 -16.1363 23.7116
rtibia 28.1476
rfoot -161.957 5.82036
rtoes -7.18794
lfemur 10.254 -7.13274 -22.4222
ltibia 13.0288
lfoot -20.5968 2.00334
ltoes -14.4685
226
root 8.85706 18.0922 -18.434 -179.65 -1.47663 -181.316
lowerback 2.65806 -1.28812 -5.6997
upperback 1.08037 -1.88305 0.765306
thorax -0.16832 -0.974289 4.03505
lowerneck -7.91524 -4.6034 -10.0729
upperneck 18.0443 -6.77457 16.2217
head 7.73267 -2.12952 6.56934
rclavicle 3.80486e-015 9.0944e-015
rhumerus -53.8875 -16.7021 -80.2446
rradius 41.4856
rwrist 29.9765
rhand -31.2611 -12.8924
rfingers 7.12502
rthumb -4.53524 -42.8239
lclavicle 3.80486e-015 9.0944e-015
lhumerus -30.6001 -18.7417 89.381
lradius 43.4166
lwrist -21.7985
lhand -30.247 15.3304
lfingers 7.12502
lthumb -3.556 45.2804
rfemur -31.7116 -15.3245 23.1612
rtibia 27.376
rfoot -161.809 6.06098
rtoes -7.97286
lfemur 11.5722 -6.7935 -22.719
ltibia 11.7218
lfoot -19.9793 1.66352
ltoes -14.6826
227
root 8.86897 18.0572 -18.6375 -179.704 -1.65208 -181.586
lowerback 2.71887 -1.33935 -5.80777
upperback 1.07225 -1.95937 0.699558
thorax -0.200817 -1.01182 4.03122
lowerneck -7.84952 -4.61525 -10.1406
upperneck 18.1541 -6.7833 16.2022
head 7.75915 -2.13598 6.57879
rclavicle -2.49444e-014 1.66482e-014
rhumerus -54.218 -16.301 -80.5041
rradius 41.9587
rwrist 29.7281
rhand -31.0772 -12.747
rfingers 7.12502
rthumb -4.35764 -42.6822
lclavicle -2.49444e-014 1.66482e-014
lhumerus -30.4923 -18.7884 89.2919
lradius 43.6936
lwrist -21.4993
lhand -30.5914 15.2454
lfingers 7.12502
lthumb -3.88859 45.1897
rfemur -31.7107 -14.7194 22.752
rtibia 26.8616
rfoot -161.794 6.24524
rtoes -8.00959
lfemur 12.7261 -6.43928 -22.8488
ltibia 10.8888
lfoot -19.6705 1.15366
ltoes -15.1486
228
root 8.88285 18.0204 -18.8407 -179.806 -1.87955 -181.859
lowerback 2.87626 -1.41636 -5.92086
upperback 1.07538 -2.07751 0.636111
thorax -0.270744 -1.06985 4.03642
lowerneck -7.77261 -4.60655 -10.1799
upperneck 18.1537 -6.76385 16.1702
head 7.74185 -2.13571 6.57682
rclavicle 2.23167e-014 -1.59028e-015
rhumerus -54.4507 -15.7745 -80.8684
rradius 42.3815
rwrist 29.6568
rhand -31.0087 -12.9068
rfingers 7.12502
rthumb -4.29154 -42.8433
lclavicle 2.23167e-014 -1.59028e-015
lhumerus -30.3231 -18.3382 89.0248
lradius 43.8262
lwrist -22.0175
lhand -30.4343 15.0619
lfingers 7.12502
lthumb -3.73687 45.0089
rfemur -31.7167 -14.3166 22.3919
rtibia 26.7514
rfoot -161.996 6.13795
rtoes -8.43198
lfemur 13.7369 -6.03661 -22.939
ltibia 10.4452
lfoot -19.3701 0.407274
ltoes -15.6827
